# xmcd CD database file
#
# Track frame offsets:
#	150
#	16287
#	40315
#	67905
#	87470
#	99467
#	109490
#	128540
#	142410
#	153515
#	174527
#	196237
#
# Disc length: 2948 seconds
#
# Revision: 0
# Processed by: cddbd v1.4PL0 Copyright (c) Steve Scherf et al.
# Submitted via: CDex 1.50beta10
#
DISCID=a50b820c
DTITLE=The Mike Reilly Band - Who's Been Sleeping in My Bed?
DYEAR=1998
DGENRE=Blues
TTITLE0=Who's Been Sleeping in My Bed?
TTITLE1=Back on the Road to Texas
TTITLE2=Black Widow
TTITLE3=What Keeps You Rockin'
TTITLE4=Lefty's Bar and Grill
TTITLE5=Hard Workin'
TTITLE6=They're Taking Everything Away
TTITLE7=Just Watch Me
TTITLE8=Good to Go
TTITLE9=Back to the Basics
TTITLE10=Shakey Ground
TTITLE11=Who's Been Sleeping in My Bed? (reprise)
EXTD=YEAR: 1998
EXTT0=
EXTT1=
EXTT2=
EXTT3=
EXTT4=
EXTT5=
EXTT6=
EXTT7=
EXTT8=
EXTT9=
EXTT10=
EXTT11=
PLAYORDER=
